<svg id="Capa_1" enable-background="new 0 0 512.003 512.003" height="512" viewBox="0 0 512.003 512.003" width="512" xmlns="http://www.w3.org/2000/svg"><g><g><g><path d="m66.068 322.27c-5.539 0-10.712 2.768-13.784 7.377l-26.824 40.236c-.907 1.361-1.391 2.959-1.391 4.595v121.742c0 4.575 3.708 8.283 8.283 8.283h182.233c4.575 0 8.283-3.709 8.283-8.283v-121.742c0-1.635-.484-3.234-1.391-4.595l-26.824-40.236c-3.072-4.609-8.245-7.377-13.784-7.377z" fill="#ffc200"/></g><g><path d="m487.935 90.336c0-47.218-39.507-85.208-87.269-82.717-42.242 2.202-76.312 36.474-78.303 78.727-.792 16.81 3.451 32.569 11.32 45.938l57.072 98.865c6.376 11.046 22.319 11.046 28.695 0l57.072-98.865c7.242-12.306 11.413-26.636 11.413-41.948z" fill="#ff5b5b"/></g><g><ellipse cx="405.102" cy="90.336" fill="#f3edea" rx="33.133" ry="33.133" transform="matrix(.16 -.987 .987 .16 251.042 475.737)"/></g><g><path d="m355.402 471.37c59.599 0 107.889-48.418 107.683-108.064-.206-59.514-49.337-107.302-108.852-107.302h-221.545c-41.107 0-75.179-32.879-75.484-73.985-.307-41.432 33.187-75.115 74.548-75.115h84.904c3.431 0 6.212 2.781 6.212 6.213v14.496c0 5.119 5.844 8.042 9.94 4.97l49.7-37.275c3.313-2.485 3.313-7.455 0-9.94l-49.7-37.275c-4.096-3.072-9.94-.149-9.94 4.97v14.496c0 3.431-2.781 6.213-6.212 6.213h-83.736c-59.515 0-108.646 47.788-108.852 107.302-.206 59.647 48.084 108.064 107.683 108.064h222.714c41.107 0 75.179 32.879 75.484 73.985.307 41.432-33.187 75.115-74.548 75.115h-91.117c-4.575 0-8.283 3.709-8.283 8.283v16.567c0 4.575 3.709 8.283 8.283 8.283h91.118z" fill="#7fe881"/></g><g><path d="m405.102 57.203c-4.199 0-8.211.789-11.907 2.214 12.414 4.784 21.226 16.819 21.226 30.92 0 14.1-8.812 26.136-21.226 30.92 3.697 1.425 7.709 2.214 11.907 2.214 18.299 0 33.133-14.834 33.133-33.133 0-18.301-14.834-33.135-33.133-33.135z" fill="#e3dcda"/></g><g><path d="m400.666 7.619c-2.523.132-5.015.385-7.475.74 40.107 5.773 70.93 40.273 70.93 81.977 0 15.311-4.171 29.642-11.414 41.947l-57.072 98.865c-.704 1.219-1.529 2.296-2.44 3.245 7.344 7.657 20.582 6.581 26.255-3.245l57.072-98.865c7.243-12.305 11.414-26.635 11.414-41.947-.001-47.217-39.508-85.207-87.27-82.717z" fill="#e50048"/></g><g><path d="m221.477 369.883-26.824-40.236c-3.072-4.609-8.245-7.377-13.784-7.377h-23.814c5.539 0 10.712 2.768 13.784 7.377l26.824 40.236c.907 1.361 1.391 2.959 1.391 4.595v121.742c0 4.575-3.709 8.283-8.283 8.283h23.814c4.575 0 8.283-3.709 8.283-8.283v-121.742c0-1.636-.484-3.234-1.391-4.595z" fill="#fe9900"/></g><g><path d="m222.472 371.97c-.234-.734-.562-1.439-.994-2.087l-26.824-40.236c-3.072-4.609-8.245-7.377-13.784-7.377h-114.802c-5.539 0-10.712 2.768-13.784 7.377l-26.824 40.236c-.432.648-.761 1.352-.994 2.087z" fill="#ffd900"/></g><g><path d="m170.839 329.647 26.824 40.236c.432.648.761 1.352.994 2.087h23.815c0-.001-.001-.001-.001-.002-.116-.366-.257-.724-.421-1.072-.167-.349-.356-.689-.572-1.013l-26.824-40.236c-3.072-4.609-8.245-7.377-13.784-7.377h-23.814c5.537 0 10.71 2.768 13.783 7.377z" fill="#ffc200"/></g><g><path d="m148.318 322.27v107.683c0 4.575-3.709 8.283-8.283 8.283h-33.133c-4.575 0-8.283-3.708-8.283-8.283v-107.683z" fill="#e3dcda"/></g><g><path d="m124.504 322.27v107.683c0 4.575-3.709 8.283-8.283 8.283h23.815c4.575 0 8.283-3.709 8.283-8.283v-107.683z" fill="#dbceca"/></g><g><path d="m98.618 322.27h49.7v49.7h-49.7z" fill="#f3edea"/></g><g><path d="m124.504 322.27h23.815v49.7h-23.815z" fill="#e3dcda"/></g></g><g><path d="m229.601 369.633c-.443-1.374-1.07-2.69-1.883-3.91l-26.824-40.236c-4.474-6.711-11.96-10.717-20.025-10.717h-114.801c-8.065 0-15.551 4.006-20.025 10.717l-26.824 40.236c-.818 1.227-1.447 2.55-1.891 3.932-.012.036-.026.071-.037.107-.475 1.516-.724 3.102-.724 4.716v121.742c0 8.703 7.08 15.783 15.783 15.783h17.874c4.142 0 7.5-3.358 7.5-7.5s-3.358-7.5-7.5-7.5h-17.872c-.432 0-.783-.352-.783-.783v-83.617h59.55v17.35c0 8.703 7.081 15.783 15.783 15.783h33.133c8.703 0 15.784-7.081 15.784-15.783v-17.35h59.55v83.617c0 .432-.352.783-.783.783h-134.361c-4.142 0-7.5 3.358-7.5 7.5s3.358 7.5 7.5 7.5h134.36c8.703 0 15.783-7.081 15.783-15.783v-121.742c0-1.612-.248-3.196-.722-4.71-.013-.046-.031-.09-.045-.135zm-41.188-35.826 20.442 30.663h-53.036v-34.7h25.05c3.038 0 5.858 1.509 7.544 4.037zm-47.594 30.663h-34.7v-34.7h34.7zm-82.295-30.663c1.686-2.528 4.506-4.038 7.544-4.038h25.05v34.7h-53.036zm-26.955 63.796v-18.133h59.55v18.133zm109.25 32.35c0 .432-.352.783-.784.783h-33.133c-.432 0-.783-.352-.783-.783v-50.483h34.7zm15-32.35v-18.133h59.55v18.133z"/><path d="m467.282 24.81c-18.144-17.223-41.94-25.996-67.007-24.681-22.29 1.162-43.305 10.59-59.173 26.545-15.865 15.953-25.181 37.019-26.232 59.318-.831 17.637 3.439 34.96 12.316 50.04l57.072 98.865c4.35 7.536 12.142 12.034 20.843 12.035 8.701 0 16.493-4.499 20.843-12.035l57.04-98.811c8.145-13.838 12.45-29.658 12.45-45.751.001-25.021-9.997-48.293-28.152-65.525zm2.744 103.724-57.071 98.865c-2.363 4.092-6.279 4.534-7.853 4.534s-5.49-.442-7.852-4.534l-57.104-98.92c-7.426-12.616-10.985-27.063-10.292-41.78 1.798-38.156 33.074-69.602 71.202-71.59 1.366-.071 2.725-.106 4.081-.106 19.406 0 37.676 7.263 51.818 20.686 15.141 14.373 23.479 33.78 23.479 54.648.001 13.418-3.588 26.608-10.408 38.197z"/><path d="m405.102 49.703c-22.405 0-40.633 18.228-40.633 40.633s18.228 40.633 40.633 40.633 40.633-18.228 40.633-40.633-18.228-40.633-40.633-40.633zm0 66.267c-14.134 0-25.633-11.499-25.633-25.633s11.499-25.633 25.633-25.633 25.633 11.499 25.633 25.633-11.499 25.633-25.633 25.633z"/><path d="m354.233 248.503h-221.545c-37.215 0-67.712-29.85-67.984-66.54-.134-18.011 6.777-34.967 19.46-47.744 12.684-12.778 29.585-19.815 47.588-19.815h83.617v25.633c0 2.841 1.605 5.438 4.146 6.708 2.542 1.271 5.582.997 7.854-.708l66.267-49.7c1.889-1.417 3-3.639 3-6s-1.111-4.584-3-6l-66.267-49.7c-2.272-1.705-5.313-1.978-7.854-.708s-4.146 3.867-4.146 6.708v25.633h-82.448c-63.938 0-116.132 51.489-116.351 114.777-.107 30.847 11.824 59.866 33.594 81.711 21.771 21.847 50.747 33.878 81.589 33.878h160.518c4.142 0 7.5-3.358 7.5-7.5s-3.358-7.5-7.5-7.5h-160.519c-26.826 0-52.028-10.465-70.964-29.467-18.935-19.001-29.311-44.241-29.219-71.071.19-55.045 45.657-99.829 101.351-99.829h89.948c4.142 0 7.5-3.358 7.5-7.5v-18.133l46.267 34.7-46.267 34.7v-18.133c0-4.142-3.358-7.5-7.5-7.5h-91.117c-22.031 0-42.712 8.612-58.234 24.248-15.52 15.635-23.977 36.383-23.814 58.422.333 44.9 37.56 81.429 82.984 81.429h221.545c55.695 0 101.162 44.783 101.352 99.828.093 26.831-10.284 52.071-29.219 71.072-18.936 19.002-44.138 29.466-70.964 29.466h-91.117c-.432 0-.783-.352-.783-.783v-16.565c0-.432.352-.783.783-.783h91.117c22.031 0 42.712-8.612 58.234-24.249 15.52-15.635 23.977-36.383 23.814-58.422-.333-44.9-37.56-81.429-82.984-81.429h-32.197c-4.142 0-7.5 3.358-7.5 7.5s3.358 7.5 7.5 7.5h32.197c37.215 0 67.712 29.85 67.984 66.54.134 18.011-6.777 34.967-19.46 47.744-12.684 12.779-29.584 19.816-47.588 19.816h-91.117c-8.703 0-15.783 7.08-15.783 15.783v16.567c0 8.703 7.081 15.783 15.783 15.783h91.117c30.842 0 59.817-12.032 81.589-33.878 21.77-21.846 33.701-50.865 33.594-81.712-.219-63.289-52.413-114.777-116.351-114.777z"/></g></g></svg>