<svg id="Capa_1" enable-background="new 0 0 512 512" height="512" viewBox="0 0 512 512" width="512" xmlns="http://www.w3.org/2000/svg"><g><path d="m483.097 208.159-4.794-2.392-49.636 19.855v60.757l49.636 19.855 4.793-2.392c1.181-.589 28.904-14.803 28.904-47.842s-27.724-47.252-28.903-47.841z" fill="#d8d8d8"/><path d="m288 97h-129.167s-20.167 79.613-20.167 159c0 75.664 19.947 159 19.947 159h129.387c87.673 0 159-71.327 159-159s-71.327-159-159-159z" fill="#a82336"/><g><path d="m303 256c0-79.52-64.456-143.984-143.971-144l-9.695 144 9.695 144c79.515-.016 143.971-64.48 143.971-144z" fill="#fd9d8c"/><path d="m159 112c-79.529 0-144 64.471-144 144s64.471 144 144 144h.029v-287.999c-.01 0-.019-.001-.029-.001z" fill="#feb4a8"/></g><g><path d="m318 256c0-87.663-71.312-158.984-158.971-158.999l-9.695 12.666 9.695 17.334c71.117.015 128.971 57.878 128.971 128.999s-57.854 128.984-128.971 129l-9.695 9.667 9.695 20.333c87.659-.016 158.971-71.337 158.971-159z" fill="#fec3b9"/><path d="m159 385c-71.131 0-129-57.869-129-129s57.869-129 129-129c.01 0 .019.001.029.001v-30c-.01 0-.019-.001-.029-.001-87.673 0-159 71.327-159 159s71.327 159 159 159h.029v-30c-.01 0-.019 0-.029 0z" fill="#f5d7cb"/></g><circle cx="96" cy="245.333" fill="#fffbf5" r="32"/><g fill="#f7f0eb"><path d="m202.666 198.333h30v30h-30z"/><path d="m159 305h30v30h-30z"/></g></g></svg>