<svg height="512pt" viewBox="-79 0 512 512" width="512pt" xmlns="http://www.w3.org/2000/svg"><path d="m350.410156 309.191406-60.15625 202.808594h-226.78125l-60.160156-202.808594c-9.839844-33.179687 2.730469-68.632812 31.269531-88.203125l30.71875-21.066406 22.242188-15.261719c14.058593-9.648437 22.449219-25.582031 22.449219-42.628906v-142.03125h133.738281v142.03125c0 17.046875 8.390625 32.980469 22.453125 42.628906l22.238281 15.261719 30.71875 21.066406c28.542969 19.570313 41.113281 55.023438 31.269531 88.203125zm0 0" fill="#984d00"/><path d="m350.410156 309.191406-60.15625 202.808594h-113.390625v-512h66.867188v142.03125c0 17.046875 8.390625 32.980469 22.453125 42.628906l22.238281 15.261719 30.71875 21.066406c28.542969 19.570313 41.113281 55.023438 31.269531 88.203125zm0 0" fill="#723802"/><path d="m269.902344 187.210938h-186.082032l3.722657-2.550782c14.058593-9.648437 22.449219-25.582031 22.449219-42.628906v-98.8125h133.738281v98.8125c0 17.046875 8.390625 32.980469 22.453125 42.628906zm0 0" fill="#f6f2f1"/><path d="m269.902344 187.210938h-93.039063v-143.992188h66.867188v98.8125c0 17.046875 8.390625 32.980469 22.453125 42.628906zm0 0" fill="#ebe2df"/><path d="m109.992188 0h133.738281v67.21875h-133.738281zm0 0" fill="#984d00"/><path d="m288.421875 199.921875-111.558594 79.5-111.5625-79.5 22.242188-15.261719c14.058593-9.648437 22.449219-25.582031 22.449219-42.628906v-1.429688h133.738281v1.429688c0 17.046875 8.390625 32.980469 22.453125 42.628906zm0 0" fill="#f4d34e"/><path d="m99.742188 324.460938h154.238281v106.75h-154.238281zm0 0" fill="#f6f2f1"/><path d="m176.863281 0h66.867188v67.21875h-66.867188zm0 0" fill="#723802"/><path d="m176.863281 324.460938h77.117188v106.75h-77.117188zm0 0" fill="#ebe2df"/><path d="m288.421875 199.921875-111.558594 79.5v-138.820313h66.867188v1.429688c0 17.046875 8.390625 32.980469 22.453125 42.628906zm0 0" fill="#ffa41f"/></svg>