<svg id="Layer_1" enable-background="new 0 0 512.005 512.005" height="512" viewBox="0 0 512.005 512.005" width="512" xmlns="http://www.w3.org/2000/svg"><path d="m3.286 185.982c-6.064-9.233-3.495-21.633 5.737-27.696l236-155c6.681-4.387 15.332-4.376 22 .027l74.979 49.515v-13.826c0-11.046 8.954-20 20-20h80c11.046 0 20 8.954 20 20v92.817l40.851 26.383c9.279 5.993 11.943 18.373 5.95 27.651-3.826 5.924-10.256 9.152-16.819 9.152-3.717 0-7.477-1.035-10.832-3.202l-19.149-12.367v52.567c0 11.046-8.954 20-20 20s-20-8.954-20-20v-173h-40v31c0 7.36-4.042 14.125-10.524 17.613-6.481 3.487-14.354 3.132-20.497-.923l-95.01-62.743-224.99 147.769c-9.234 6.065-21.632 3.495-27.696-5.737zm508.716 164.02v142c0 7.096-3.759 13.659-9.879 17.25-3.122 1.832-6.621 2.75-10.121 2.75-3.361 0-6.723-.846-9.756-2.541l-63.453-35.459h-156.209c-58.677 0-113.509-22.151-154.394-62.374l-90.256-88.794c-23.577-23.195-23.907-61.267-.737-84.867 11.234-11.444 26.25-17.823 42.282-17.962 16.059-.14 31.157 5.977 42.589 17.224l69.495 68.083c12.095 11.886 27.439 18.69 42.122 18.69h7.797c6.499-26.389 30.162-46 58.278-46h78.621c35.603 0 61.341 1.544 93.437 22.177l51.05 33.032c5.695 3.686 9.134 10.007 9.134 16.791zm-40 10.881-41.865-27.09c-23.47-15.087-40.747-15.791-71.757-15.791h-78.62c-10.866 0-20.045 9.448-20.045 20.632 0 11.231 8.992 20.368 20.045 20.368h81.093c11.046 0 20 8.954 20 20s-8.954 20-20 20h-81.093c-24.103 0-44.933-14.351-54.483-35h-11.592c-25.083 0-50.647-10.985-70.137-30.14l-69.502-68.091c-3.797-3.734-8.766-5.77-14.04-5.77-.06 0-.119 0-.179.001-5.34.046-10.343 2.172-14.087 5.986-7.735 7.879-7.625 20.588.246 28.331l90.256 88.794c33.356 32.815 78.225 50.888 126.341 50.888h161.418c3.416 0 6.775.875 9.756 2.541l38.244 21.371v-97.03zm-231-215.881c0-5.523-4.477-10-10-10h-20c-5.523 0-10 4.477-10 10v20c0 5.523 4.477 10 10 10h20c5.523 0 10-4.477 10-10zm69 0c0-5.523-4.477-10-10-10h-20c-5.523 0-10 4.477-10 10v20c0 5.523 4.477 10 10 10h20c5.523 0 10-4.477 10-10zm-10 60h-20c-5.523 0-10 4.477-10 10v20c0 5.523 4.477 10 10 10h20c5.523 0 10-4.477 10-10v-20c0-5.523-4.477-10-10-10zm-69 0h-20c-5.523 0-10 4.477-10 10v20c0 5.523 4.477 10 10 10h20c5.523 0 10-4.477 10-10v-20c0-5.523-4.477-10-10-10z"/></svg>